<svg version="1" xmlns="http://www.w3.org/2000/svg" width="1365.333" height="1365.333" viewBox="0 0 1024.000000 1024.000000"><path d="M341.7 22.6c-.1.1-4.9.5-10.7.8-5.8.4-11.4.9-12.5 1-1.1.2-3.7.4-5.7.5-3.9.1-5.5 2.1-1.7 2.1 1.1 0 6.5 1.1 11.9 2.5 47.3 12 73.3 36.8 72.7 69.2-.2 7.4-.5 8.5-2.7 10.8-5.5 5.5-14.4 3.5-45-9.8-17-7.4-22.4-9.7-24.5-10.3-.5-.2-6.2-2.2-12.5-4.4-38.9-13.5-69.8-12-95.3 4.6-6.6 4.3-17.1 14-24 22.2-8.8 10.3-23.4 37.8-27.3 51.2-.6 2.1.1 1.7 4.7-2.4 3-2.7 7.2-6.1 9.4-7.5 2.2-1.4 4.6-3.1 5.2-3.8 2.3-2.1 23.8-12.2 31.5-14.7 21.3-6.9 47.4-8.1 71.1-3.2 1.5.3 3.8.8 5.1 1.1 11.9 2.5 45.4 17.3 42 18.6-1.1.3-5.3 1.6-9.4 2.9-45.8 13.4-100.2 43.6-142.6 79.1-20.2 16.8-46.8 44.1-58.9 60.4-1.6 2.2-3.3 4.2-3.6 4.5-1.1.9-16.4 22.4-19.9 28-1.9 3-3.8 5.6-4.2 5.8-.5.2-.8.7-.8 1.2s-2.3 4.6-5.1 9.2c-12.2 20.2-27 52-36.5 78.6-4.8 13.4-13.4 42.1-14.8 49.2-.3 1.4-1.1 5-1.9 8-3.5 13.4-10.7 46.7-12.1 56.5-.4 2.2-1.5 9.2-2.6 15.5-1 6.3-2.2 14.2-2.5 17.5-.4 3.3-.8 6.7-1 7.5-.2.8-.7 5.1-1.1 9.5-.3 4.4-.8 8.8-1 9.8-2.5 13.5-2.4 79 .1 92.7.2.9.6 4.3 1 7.5.4 3.3.9 6.9 1.1 8 .3 1.1.7 3.6 1 5.5.3 1.9 1.3 6.4 2.1 10 .8 3.6 1.7 7.5 1.9 8.8 1.1 5.8 8.8 27.3 12.8 35.7 4.8 10.2 11.6 21 16.5 26.5l3.2 3.5-.6-5.9c-.4-3.2-.8-6.8-1-8-1.1-6.4-2.6-23-4.1-44.1-.4-6.6-.4-55.8 0-61.5.2-2.5.7-9.2 1.1-15 .8-11.8 1.1-15.4 1.9-22.5 1.7-13.7 2.2-18.1 3.2-23.5.2-1.4.7-4.5 1-7 .5-3.7 4.1-22 6-30.5.2-1.1.7-3.3.9-4.9 2.4-12.8 16.6-58.3 22-70.1.7-1.7 2.3-5.4 3.4-8.3 1.2-2.9 5-11.2 8.4-18.5 28.2-59.1 67.7-107.9 118.6-146.5 11.3-8.6 29.6-21.2 35.6-24.6 1.7-.9 3.7-2.1 4.5-2.6 11.9-7.8 42.6-22.8 64.2-31.6 17-6.8 51-18.5 57.8-19.9.8-.2 5.8-1.4 11-2.9 5.2-1.4 11.5-2.8 14-3.1 2.5-.3 5.4-.8 6.5-.9 1.1-.2 4.9-.7 8.5-1.1 3.6-.4 7.2-.9 8-1 .8-.2 4.9-.6 9-1 4.1-.3 8.9-.8 10.5-1.1 1.7-.3 12.9-.7 25-.9 28.2-.6 39.4 1.3 44.1 7.4 1.2 1.5 1.1 3.1-.6 16.1-.5 3.6-.7 11.9-.5 18.5.8 29.2 14.2 52.2 41.1 70.4 3.4 2.2 6.3 4.1 6.5 4.1.3 0 .4-3.5.5-7.8 0-8.5 1-22.7 2-28.2 3.7-21.4 5.7-28.5 11.7-41 7.9-16.4 27.3-31 32.7-24.6 1.5 2 1.1 11.1-1.1 21.1-5.5 24.7-6.7 34-6.4 49.5.2 10.3.7 16.1 2 20 4.1 13.3 12.5 24.1 23.9 30.9 5.7 3.4 19.2 8.4 25.6 9.5 1.9.3 4.6.8 6 1.1 1.4.3 6.1.8 10.5 1.2l8 .6-3.4-3.9c-5.7-6.4-9.4-15.7-9.9-24.9-.7-12.9 3-23.5 13.1-37.5 5.4-7.4 21-22.6 28.3-27.5 3.2-2.2 6.1-4.3 6.4-4.6.3-.3 3.7-1.9 7.5-3.4 12.2-5 27.4-4.2 42 2 9.3 4 24.2 15 34.5 25.5 15.8 16.1 27.4 31.3 51 66.6 21.9 32.8 28.1 41.1 50 67 2.8 3.4 16.4 23.3 21 30.9 6.4 10.6 14.2 25.8 19.4 38 2.6 6 5.1 11.9 5.6 13 1.2 2.7 6.3 17.5 8.9 25.5 7.2 22.6 16 63.5 19.6 90.7 1.9 15.2 2.2 17.4 4.1 35.2.3 3 .7 8.2.9 11.5.2 3.4.6 10.1 1 15.1 1.2 18.6 1.5 26.8 2 54.9.3 16 .7 29.1.9 29.3.3.4 7.4-27.4 9.6-37.7.4-1.9 2.8-13 5.3-24.5 2.5-11.6 4.9-22.6 5.2-24.5.3-1.9 1.5-8.2 2.6-14 1.1-5.8 2.2-12.3 2.5-14.5.2-2.2.9-6.5 1.4-9.5.5-3 1.2-7.8 1.5-10.5.4-2.8.8-6.1 1-7.5.2-1.4.7-5 1-8 .3-3 .8-7.1 1-9 2.3-20.6 2.3-46.1 0-58-.5-2.4-2.7-13-3-14-7.1-26.7-24.2-67.3-42.6-100.7-27.4-49.8-58.9-98.2-96.8-148.8-7.4-9.9-15.3-20.3-17.5-23.1-2.3-2.8-5.4-6.8-7.1-9-14.8-19-47.1-57.1-67.8-79.9-34.3-37.7-62.1-59.3-99-77-16.2-7.8-39.6-16-51.7-18.1-1.4-.3-4.1-.9-6-1.4-1.9-.4-6.9-1.4-11-2-4.1-.6-8.6-1.3-10-1.6-13.3-2.2-59.7-2.2-70.5 0-1.1.2-4.9.7-8.5 1.1-3.6.4-13.7 2-22.5 3.6-26.5 4.9-31.1 5.3-34.1 2.8-1.6-1.3-4.2-6.5-9-17.9-5.9-14.1-12.3-24-21.4-33.1-18.4-18.6-43.6-27.5-80.3-28.3-5.3-.1-9.8-.2-10 0z"/><path d="M228.7 736.6c-.1.1-4 .4-8.7.8-10.8.8-17.1 1.5-24 2.6-3 .5-7.5 1.2-10 1.5-2.5.3-5.6.8-7 1-1.4.3-3.6.7-5 1-1.4.3-5.9 1.2-10 2s-8.4 1.7-9.5 1.9c-1.1.2-5.6 1.2-10 2.1-4.4.9-9.1 1.9-10.5 2.1-1.4.3-6.5 1.4-11.3 2.5-4.8 1-10.5 2.2-12.5 2.5-2 .3-4.4.7-5.3 1-3.2.9-25.4 4.4-28.1 4.4-2.4 0-2.9.6-4.3 5.2-2.2 7.2-2 18.9.3 26 2.5 7.6 6.9 14.7 16.5 26.5 14.1 17.6 17.8 24 24.5 42.3 2.8 7.7 9.7 29.5 10.9 34.5 4.1 17.1 14.9 43.3 22.5 54.6 16.3 24.4 45.6 40.2 89.1 47.9 13.2 2.3 15.4 2.6 27.2 3.6 16.6 1.3 46.6.7 60.2-1.1 8.5-1.2 17.4-2.7 23.3-4.1 3.6-.9 7.2-1.7 8-1.9 9.9-2.1 29.7-9.8 39.3-15.2 17.4-9.8 41.9-36 61.6-65.8 11.5-17.4 14.2-23.6 23.6-54 6.5-21 10.6-26.9 21-30.5 7.3-2.5 11.9-3.2 20.7-3.1 16.5.1 26.1 10 33.6 34.6 1.7 5.5 4.5 14.7 6.2 20.5 6.2 20.2 18.2 39.9 40.1 65.6 19.7 23.1 37.8 34.7 69.4 44.8 25.4 8 40.8 10.1 74 10.1 19.9-.1 33.3-1.3 45.4-4 45.4-10.4 77.1-28.9 95-55.4 9.3-13.8 14.7-27.4 22.1-56.6 8.2-31.7 13.3-46 19.4-53.9 1.3-1.7 6.3-7.1 11.1-12 9.4-9.5 12.9-15.5 14-24 .5-3.8.2-5.2-1.2-6.8-1.5-1.7-1.6-2.4-.3-6.6.7-2.6 1.5-6.3 1.7-8.2.7-5.7.9-5.6-28-14.6-18.5-5.7-61.8-15.3-80.7-17.9-2.5-.3-5.6-.8-7-1-1.4-.3-5-.7-8-1-3-.3-6.8-.8-8.5-1-1.6-.2-6.7-.7-11.2-1-4.5-.3-9.6-.8-11.5-1-4.3-.6-49.3-.7-53.8-.1-1.9.3-7.5.8-12.3 1.1-4.9.4-9.8.8-11 1-1.2.2-4.9.6-8.2 1-3.3.3-10.7 1.3-16.5 2.1-5.8.9-12.1 1.7-14 2-1.9.2-4.6.6-6 .9-1.4.3-4.5.8-7 1.1-2.5.3-5.2.7-6 .9-.8.1-3.5.6-6 1s-5.4.9-6.5 1.1c-1 .2-3.5.6-5.5.9-2 .3-4.7.8-6 1-1.4.3-3.8.7-5.5 1-1.6.3-4.1.7-5.5 1-2.7.5-3.9.7-18.5 3-13.6 2.2-14.3 2.3-20 3.1-2.7.3-5.7.8-6.5.9-.9.2-4.3.6-7.5 1-3.3.4-6.8.9-7.7 1.1-.9.1-4.8.6-8.5.9-3.7.4-7.9.8-9.3 1.1-15.3 2.6-70.2 2.5-89-.1-1.4-.2-5.2-.6-8.5-1s-6.7-.8-7.5-1c-.8-.1-4-.6-7-1s-6.4-.9-7.5-1.1c-1-.2-3.7-.6-6-.9-4-.6-19.2-3.1-23-3.9-1.1-.2-6.3-1.1-11.5-2-13-2.2-13.7-2.3-20.5-3.5-3.3-.6-7.1-1.3-8.5-1.6-1.3-.3-4.2-.7-6.5-1-2.2-.3-4.7-.8-5.5-1-.8-.2-3.5-.7-6-1-2.5-.3-6.7-1-9.5-1.5-2.7-.5-8.8-1.4-13.5-2-4.7-.6-10-1.3-11.8-1.5-5.6-.8-14.4-1.8-29.2-3.1-6.8-.6-48.7-1.3-49.3-.8zM773 758.4c6.9.4 14.1.8 16 1.1 1.9.2 6.7.6 10.5 1 6.1.5 10.4 1.2 26.5 4 7.5 1.3 19.9 4.8 28.8 8.1 22.8 8.6 32.5 18.4 37.7 37.9 1.9 7.1 2.7 28.4 1.4 37-.5 3.3-1.1 8-1.4 10.5-1 7.9-6.5 28.9-10.5 39.9-11.8 33-23.8 50.9-41.7 62.5-17 11-41.2 19-63.8 21.2-3.3.3-7.1.7-8.5 1-3 .5-36.6.6-39.5 0-1.1-.2-5.1-.7-8.9-1.1-3.8-.4-8.1-.9-9.5-1.1-28.8-5.1-52.1-13.3-68.4-24.1-16.6-11.1-39.3-37.1-53.4-61.3-13.3-23-19.4-42.4-19.6-62.5-.2-18.5 3.3-27.9 14.3-38.5 14.5-14.1 45.2-25.4 83-30.5 2.5-.3 5.6-.8 7-1 5.1-.8 16.8-2 27.5-3 2.2-.1 11-.6 19.5-1s15.6-.8 15.7-.9c.4-.3 26.2.2 37.3.8zm-445 1c9.6.3 18.6.8 20 1 1.4.2 5.3.7 8.7 1 27.8 2.8 55.1 10.1 72.3 19.4 25.2 13.7 34.3 32 30.6 61.2-4 32.3-31.4 81.4-57.1 102.6-24.8 20.5-61 33.5-105 37.9-6.3.7-31.8.7-36.5.1-1.9-.3-6.2-.7-9.5-1.1-14.6-1.5-37.5-8-50-14.2-3.8-2-10.4-5.9-14.6-8.9-12.2-8.6-18.5-16.4-26.9-33.2-22-44.3-30.8-92.6-21.9-120.1 3.5-10.8 11.5-20.9 21-26.4 10.2-6 34.3-12.6 51.4-14.1 3.3-.3 8.3-.8 11-1.1 5.5-.6 11.1-1 25.5-2 5.2-.4 11.3-.9 13.5-1.1 2.2-.2 13.5-.7 25-1 11.6-.4 21.1-.8 21.3-.9.2-.2 1.1-.1 2 .1.9.1 9.6.5 19.2.8z"/><path d="M731.5 807.1c-9.8 1.8-24 9.2-29 15.1-11.4 13.3-15.6 24.5-15.1 40.1.8 22.5 15.1 41.4 37.1 48.7 8.9 3 23.2 3.3 31.5.6 23.8-7.8 38.8-28.3 38.4-52.7-.3-22.6-15.4-42.7-37.3-49.9-6.5-2.2-19.3-3.1-25.6-1.9zM271.5 808c-9.5 2.3-11.9 3.4-19 8.4-7.9 5.7-12.8 11.5-16.9 20.1-4.4 9.1-5.6 15-5.1 26 .6 15 5.3 25.5 16.1 36.1 33 32.3 89.5 9.2 90.3-37 .3-15-3.8-26.6-13.1-37-13.3-15-33.2-21.3-52.3-16.6z"/></svg>