<svg id="Layer_1" data-name="Layer 1" xmlns="http://www.w3.org/2000/svg" viewBox="0 0 262.96 262.96"><defs><style>.cls-1{fill:#00303d;}.cls-2{fill:#b30000;fill-rule:evenodd;}</style></defs><title>Icon</title><path class="cls-1" d="M14.24,203.52S-7.45,89.26,102.2,62.17c0,0,31.25-5,30.26,1.37s-2.83,18.18,11.7,26.84c0,0-.94-21.63,9.63-26.15s-16,32.9,19.94,34.4c0,0-11.31-9.09,6.2-23.39s34.12,17.27,42.37,28.93,29.74,26.34,29.07,98.59c0,0,8.59-30.86,8.59-51.17s-28.57-67-63.25-104.25-74.3-18.62-77.78-20.88S116,1.06,78.81,6.7c0,0,23,2.64,23,18.82S60.15-7.22,42,42.45c0,0,17.5-18.81,44.24-3.76,0,0-58.45,13.17-75.95,79.78S14.24,203.52,14.24,203.52Z"/><path class="cls-2" d="M243.56,197.31c2.7,1.48-1.58,4.75.85,5.8.11,6.43-5.19,7.58-7.6,12.31-4,7.9-3.89,19.13-10.14,27.53-12.17,16.4-46,19.62-65.85,6.53-4.53-3-12.37-12.92-15.19-18.85-4.17-8.73-2.58-22.24-17.73-17.38-4.27,1.37-4.71,9.52-7.6,15.94s-12.3,18.27-17.73,21.73C86.79,261,53.1,259.65,41,248c-8-7.67-8.39-20.24-13.52-31.15-3.26-6.94-11.88-10.93-8.44-21,12.52-1.53,25-5.61,38-6.52,21.32-1.49,42,5.13,63.32,7.25,27.27,2.71,55.46-8.78,82.74-7.25A152.48,152.48,0,0,1,243.56,197.31ZM36.72,203.83c-6.51,10.45,3,34,7.6,39.12,12.71,14.41,49,12,62.47-3.61,4-4.65,13.88-19.32,11-30.43-3.3-12.62-28.62-15.13-49-13.77C53.4,196.17,41.21,196.64,36.72,203.83Zm109.76,5.08c-3.75,14.29,11.56,32.49,18.57,36.94,14,8.89,44.69,10.12,55.72-3.62,5-6.28,13-28.26,6.75-38.4-5.22-8.41-29.17-10.5-49-8.69C163.17,196.55,148.81,200,146.48,208.91Z"/><path class="cls-1" d="M86.6,220.85A13.76,13.76,0,1,1,72.84,207.1,13.75,13.75,0,0,1,86.6,220.85Z"/><path class="cls-1" d="M204,220.85a13.76,13.76,0,1,1-13.75-13.75A13.75,13.75,0,0,1,204,220.85Z"/></svg>