<svg id="Layer_1" data-name="Layer 1" xmlns="http://www.w3.org/2000/svg" viewBox="0 0 267.1 88"><defs><style>.cls-1{font-size:73.02px;fill:#00303d;}.cls-1,.cls-2{font-family:Arial-BoldMT, Arial;font-weight:700;}.cls-2{font-size:21.1px;}.cls-2,.cls-4{fill:#b30000;}.cls-3{fill:#fff;}</style></defs><title>WTH Logo Horiz</title><text class="cls-1" transform="translate(0.11 84.46)">Michael</text><text class="cls-2" transform="translate(87.57 24.78)">Where The Hell Is</text><path class="cls-3" d="M87.55,23.42c0-.26,0-.52,0-.78a16.55,16.55,0,0,0-33.09,0,16.38,16.38,0,0,0,.32,3.23c.68,4.87,3.61,16.39,16.28,28.42h0C87.8,38.41,87.56,23.42,87.56,23.42Z"/><path class="cls-3" d="M80.29,22.64A9.27,9.27,0,1,1,71,13.38,9.27,9.27,0,0,1,80.29,22.64Z"/><path class="cls-4" d="M87.55,18.81c0-.25,0-.51,0-.77a16.55,16.55,0,0,0-33.09,0,16.28,16.28,0,0,0,.32,3.22c.68,4.88,3.61,16.4,16.28,28.43h0C87.8,33.81,87.56,18.81,87.56,18.81Z"/><path class="cls-3" d="M80.29,18A9.27,9.27,0,1,1,71,8.78,9.27,9.27,0,0,1,80.29,18Z"/></svg>